<?xml version="1.0"?>
<svg xmlns="http://www.w3.org/2000/svg" height="512px" viewBox="-18 0 511 511.99977" width="512px"><path d="m461.441406 394.007812h-103.855468c-8.253907 0-14.96875 6.714844-14.96875 14.96875v88.054688c0 8.253906 6.714843 14.96875 14.96875 14.96875h103.855468c8.253906 0 14.972656-6.714844 14.972656-14.96875v-88.054688c-.003906-8.253906-6.71875-14.96875-14.972656-14.96875zm-68.027344 15h32.199219v29.378907h-32.199219zm-35.796874 88.023438-.03125-88.023438h20.828124v31.640626c0 7.019531 5.71875 12.738281 12.738282 12.738281h36.722656c7.023438 0 12.738281-5.714844 12.738281-12.738281v-31.640626h20.796875l.03125 87.992188zm0 0" fill="#FFFFFF"/><path d="m86.320312 201.195312c0-13.539062-11.015624-24.554687-24.554687-24.554687s-24.554687 11.015625-24.554687 24.554687c0 13.539063 11.015624 24.554688 24.554687 24.554688s24.554687-11.015625 24.554687-24.554688zm-34.109374 0c0-5.269531 4.285156-9.554687 9.554687-9.554687 5.265625 0 9.554687 4.285156 9.554687 9.554687 0 5.265626-4.289062 9.554688-9.554687 9.554688-5.269531 0-9.554687-4.289062-9.554687-9.554688zm0 0" fill="#FFFFFF"/><path d="m276.367188 29.390625c-13.539063 0-24.550782 11.011719-24.550782 24.550781 0 13.539063 11.011719 24.554688 24.550782 24.554688 13.539062 0 24.554687-11.015625 24.554687-24.554688 0-13.539062-11.015625-24.550781-24.554687-24.550781zm0 34.105469c-5.265626 0-9.550782-4.285156-9.550782-9.554688 0-5.265625 4.285156-9.550781 9.550782-9.550781 5.269531 0 9.558593 4.285156 9.558593 9.550781 0 5.269532-4.289062 9.554688-9.558593 9.554688zm0 0" fill="#FFFFFF"/><path d="m376.78125 214.691406c-.179688 5.523438 1.042969 10.777344 3.347656 15.414063l-22.960937 26.25c-5.417969 6.191406-5.722657 15.429687-.71875 21.964843l19.363281 25.300782c1.476562 1.929687 3.707031 2.941406 5.960938 2.941406 1.589843 0 3.191406-.503906 4.554687-1.542969 3.289063-2.519531 3.914063-7.226562 1.394531-10.515625l-19.363281-25.300781c-.675781-.882813-.636719-2.132813.097656-2.972656l21.417969-24.484375c5.105469 3.785156 11.367188 6.117187 18.1875 6.339844.355469.011718.714844.015624 1.070312.015624 6.417969 0 12.429688-1.890624 17.488282-5.15625l19.773437 25.835938c.675781.882812.636719 2.132812-.097656 2.972656l-20.976563 23.980469c-2.726562 3.117187-2.410156 7.855469.707032 10.582031 1.421875 1.246094 3.179687 1.855469 4.933594 1.855469 2.089843 0 4.164062-.867187 5.648437-2.5625l20.976563-23.980469c5.417968-6.191406 5.722656-15.429687.71875-21.964844l-21.199219-27.695312c2.605469-4.476562 4.171875-9.636719 4.351562-15.164062l.996094-30.480469c.890625-1.078125 1.734375-2.203125 2.535156-3.371094 14.523438-21.207031 9.085938-50.277344-12.121093-64.800781l-102.40625-70.136719c-.996094-10.109375-4.878907-20.039063-11.785157-28.472656-9.023437-11.019531-21.796875-17.863281-35.96875-19.273438-14.167969-1.410156-28.042969 2.777344-39.058593 11.800781l-169.265626 138.617188c-11.464843-2.972656-23.980468-1.953125-35.328124 3.667969-23.210938 11.5-34.054688 38.535156-25.226563 62.886719l25.96875 71.636718c1.410156 3.898438 5.71875 5.910156 9.609375 4.496094 3.894531-1.410156 5.90625-5.710938 4.492188-9.605469l-25.96875-71.636719c-6.226563-17.167968 1.421874-36.226562 17.785156-44.335937 8.859375-4.390625 18.730468-4.800781 27.488281-1.8125.21875.089844.441406.167969.664063.234375 7.144531 2.59375 13.496093 7.464844 17.894531 14.289062l83.914062 130.300782c-5.363281-.875-10.867187-1.328125-16.472656-1.328125-33.140625 0-62.648437 15.839843-81.351563 40.347656l-11.726562-32.34375c-1.414062-3.894531-5.710938-5.910156-9.609375-4.496094-3.894531 1.414063-5.90625 5.714844-4.492187 9.609375l15.726562 43.378906c-6.929688 13.785157-10.835938 29.339844-10.835938 45.792969v13.730469h-14.667968c-23.015625 0-41.746094 18.726562-41.746094 41.746094v31.175781c0 7.488281 6.089844 13.578125 13.574219 13.578125h290.253906c7.484375 0 13.574219-6.089844 13.574219-13.578125v-31.175781c0-23.019532-18.726563-41.746094-41.746094-41.746094h-14.667969v-13.730469c0-42.894531-26.535156-79.703125-64.054687-94.878906l-54.457032-84.554687 132.808594-108.757813 36.84375 25.230469c1.296875.886718 2.773438 1.3125 4.230469 1.3125 2.394531 0 4.742187-1.140625 6.195313-3.261719 2.339843-3.417969 1.46875-8.085937-1.949219-10.425781l-33.230469-22.757813 23.328125-19.105469c9.453125-7.742187 15.554687-18.078124 18.125-29.148437l95.0625 65.105469c14.382813 9.847656 18.070313 29.566406 8.222656 43.949218-.898437 1.308594-1.878906 2.539063-2.9375 3.679688-.035156.035156-.070312.074219-.105469.109375-.976562 1.046875-2.011718 2.007813-3.09375 2.894531-.023437.015625-.042968.035156-.066406.050782-.054687.046874-.117187.09375-.175781.140624-.078125.0625-.15625.128907-.238281.191407-.003906.003906-.007813.007812-.011719.011719-3.941406 3.078124-8.589844 5.191406-13.648437 6.136718-5.171876.96875-10.390626.640625-15.273438-.894531-.035156-.011719-.070312-.023437-.105469-.035156-.074219-.023438-.148437-.046875-.222656-.070313-.054687-.019531-.113281-.039062-.167969-.054687-.046875-.019531-.097656-.035157-.144531-.050781-.078125-.027344-.15625-.054688-.230469-.082032-.023437-.003906-.042968-.011718-.0625-.019531-2.386718-.835937-4.707031-1.972656-6.910156-3.414063-.003906 0-.007812-.003906-.011719-.007812-.183593-.117188-.363281-.242188-.546875-.367188l-38.058594-26.0625c-3.417968-2.339843-8.082031-1.46875-10.425781 1.949219-2.339843 3.417969-1.46875 8.085938 1.949219 10.425781l35.355469 24.214844zm-100.625 225.808594c14.75 0 26.75 12 26.75 26.75v29.75h-287.40625v-29.75c0-14.75 12-26.75 26.746094-26.75zm-159.367188-33.507812c0-23.386719 19.027344-42.410157 42.414063-42.410157 23.382813 0 42.410156 19.023438 42.410156 42.410157 0 6.445312-1.457031 12.769531-4.242187 18.507812h-76.339844c-2.785156-5.738281-4.242188-12.058594-4.242188-18.507812zm129.703126 4.777343v13.730469h-32.9375c2.015624-5.925781 3.058593-12.171875 3.058593-18.507812 0-31.65625-25.757812-57.410157-57.414062-57.410157s-57.410157 25.753907-57.410157 57.410157c0 6.332031 1.042969 12.582031 3.058594 18.507812h-32.9375v-13.730469c0-48.128906 39.160156-87.289062 87.292969-87.289062 48.128906 0 87.289063 39.160156 87.289063 87.289062zm55.210937-328.804687-166.898437 136.679687-30.433594-47.257812c-3.921875-6.089844-8.945313-11.085938-14.65625-14.867188l163.4375-133.839843c7.917968-6.484376 17.882812-9.5 28.070312-8.484376 10.183594 1.015626 19.363282 5.933594 25.847656 13.851563 13.386719 16.34375 10.980469 40.535156-5.367187 53.917969zm90.070313 132.214844.464843-14.167969c.890625.289062 1.792969.550781 2.699219.78125.027344.007812.054688.015625.078125.019531.121094.03125.242187.0625.363281.09375.089844.019531.179688.042969.269532.066406.03125.003906.058593.011719.089843.019532 10.527344 2.519531 21.617188 1.28125 31.3125-3.480469l-.585937 17.804687c-.3125 9.5625-8.296875 17.09375-17.914063 16.777344-9.5625-.3125-17.089843-8.347656-16.777343-17.914062zm0 0" fill="#FFFFFF"/></svg>
