<?xml version="1.0"?>
<svg xmlns="http://www.w3.org/2000/svg" height="512px" viewBox="-16 0 512 512.00004" width="512px"><path d="m481.066406 484.472656-4.402344-25.757812c-.695312-4.082032-4.578124-6.828125-8.65625-6.132813-4.082031.699219-6.828124 4.574219-6.128906 8.65625l4.402344 25.757813c.429688 2.53125-.242188 5.003906-1.898438 6.964844-1.652343 1.960937-3.976562 3.039062-6.542968 3.039062h-52.570313l-9.390625-57.699219c-.664062-4.085937-4.507812-6.859375-8.605468-6.195312-4.089844.664062-6.863282 4.515625-6.199219 8.605469l9 55.289062h-298.742188l9-55.289062c.664063-4.089844-2.109375-7.941407-6.199219-8.605469-4.09375-.667969-7.941406 2.105469-8.605468 6.195312l-9.390625 57.699219h-52.574219c-2.566406 0-4.890625-1.078125-6.542969-3.042969-1.652343-1.957031-2.328125-4.429687-1.894531-6.960937l10.246094-59.988282c4.046875-23.699218 21.585937-43.195312 44.707031-49.730468l90.007813-19.125c23.925781 16.054687 51.746093 24.527344 80.617187 24.527344s56.6875-8.472657 80.617187-24.527344l90.003907 19.125c23.125 6.535156 40.660156 26.03125 44.707031 49.730468.695312 4.082032 4.574219 6.824219 8.65625 6.128907 4.082031-.695313 6.828125-4.574219 6.128906-8.65625-5.03125-29.464844-26.890625-53.691407-55.683594-61.714844-.148437-.042969-.300781-.078125-.457031-.109375l-102.433593-21.769531c-5.820313-1.167969-12.328126-9.140625-12.328126-18.054688v-25.980469c13.84375-12.414062 28.265626-26.988281 34.359376-35.9375 10.332031-15.171874 16.339843-32.917968 17.371093-51.3125l.808594-14.355468.339844-.015625c9.425781-.394531 16.8125-8.101563 16.8125-17.539063v-46.046875c0-7.523437-5.535157-13.78125-12.75-14.910156l.386719-6.835937c1.519531-27.101563-7.832032-53.808594-25.660157-73.277344-33.039062-36.082032-81.605469-36.621094-84.335937-36.621094-.019532 0-.039063 0-.054688 0h-12.960937c-.015625 0-.03125 0-.054688 0-2.761719 0-51.316406.542969-84.351562 36.613281-16.382813 17.886719-25.605469 41.886719-25.820313 66.695313h-.28125c-6.574218 0-11.925781 5.351562-11.925781 11.929687v62.453125c0 9.4375 7.386719 17.140625 16.8125 17.539063l.339844.011719.804687 14.347656c1.03125 18.402344 7.039063 36.148437 17.375 51.324218 6.09375 8.949219 20.515625 23.523438 34.359375 35.9375v25.980469c0 8.914063-6.511719 16.886719-12.410156 18.074219l-102.351563 21.75c-.152343.03125-.304687.066406-.453124.109375-28.796876 8.023437-50.65625 32.25-55.6875 61.714844l-10.246094 59.992187c-1.171875 6.859375.730468 13.84375 5.214844 19.160156 4.488281 5.316407 11.050781 8.367188 18.007812 8.367188h434.277344c6.957031 0 13.523437-3.050781 18.007812-8.367188 4.488282-5.316406 6.390625-12.300781 5.21875-19.160156zm-320.179687-437.726562c28.71875-31.359375 72.871093-31.746094 73.324219-31.746094h13.003906.003906c.652344 0 44.511719.308594 73.300781 31.75 15.117188 16.507812 23.042969 39.214844 21.746094 62.308594l-.421875 7.492187h-125.488281v-1.238281c0-6.621094-5.386719-12.003906-12.003907-12.003906h-65.347656c.207032-21.082032 8.023438-41.429688 21.882813-56.5625zm-34.089844 71.5625h74.558594v11.488281h-74.558594zm32.730469 134.164062c-8.800782-12.925781-13.914063-28.042968-14.796875-43.722656l-.71875-12.871094 13.550781.570313c.105469.003906.210938.003906.320312.003906 3.996094 0 7.316407-3.152344 7.484376-7.183594.175781-4.140625-3.039063-7.636719-7.175782-7.808593l-28.949218-1.21875c-1.371094-.058594-2.445313-1.179688-2.445313-2.550782v-32.898437h77.554687c6.617188 0 12.003907-5.382813 12.003907-12.003907v-1.238281h138.160156c.050781 0 .089844.042969.089844.09375v46.046875c0 1.371094-1.070313 2.492188-2.445313 2.550782l-75.1875 3.164062c-3.476562.136719-6.730468-1.667969-8.421875-4.746094l-6.667969-12.128906c-4.3125-7.84375-12.230468-12.527344-21.179687-12.527344-8.953125 0-16.871094 4.683594-21.183594 12.527344l-6.667969 12.128906c-1.6875 3.074219-4.917968 4.882813-8.421874 4.746094l-11.085938-.46875c-4.09375-.179688-7.632812 3.039062-7.808594 7.179688-.175781 4.136718 3.039063 7.636718 7.179688 7.808593l11.085937.46875c.347657.015625.695313.019531 1.042969.019531 8.828125 0 16.867188-4.730468 21.152344-12.527343l6.667968-12.128907c1.636719-2.976562 4.640626-4.753906 8.035157-4.753906 3.398437 0 6.402343 1.777344 8.039062 4.753906l6.667969 12.128907c4.453125 8.101562 12.949219 12.898437 22.195312 12.507812l59.789063-2.515625-.722656 12.878906c-.878907 15.675782-5.996094 30.789063-14.792969 43.714844-10.828125 15.898438-50.191406 50.148438-57.066406 53.082032-15.320313 6.53125-32.894532 6.53125-48.214844 0-2.257812-.964844-10.507812-6.980469-22.539062-17.605469-.066407-.0625-.132813-.117188-.199219-.175781-1.480469-1.308594-3.015625-2.683594-4.601563-4.128907-13.777344-12.535156-25.167968-24.480469-29.726562-31.171875zm36.960937 70.355469v-13.21875c6.148438 4.898437 11.277344 8.484375 14.222657 9.742187 9.53125 4.0625 19.761718 6.097657 29.992187 6.097657s20.460937-2.035157 29.988281-6.097657c2.949219-1.257812 8.078125-4.84375 14.222656-9.742187v13.21875c0 10.898437 6.164063 23.738281 16.515626 29.773437-18.644532 9.902344-39.363282 15.078126-60.726563 15.078126-21.371094 0-42.097656-5.179688-60.746094-15.085938 10.382813-6.050781 16.53125-18.875 16.53125-29.765625zm0 0" fill="#FFFFFF"/></svg>
